# Blender v2.74 (sub 0) OBJ File: ''
# www.blender.org
mtllib window.mtl
o windows1
v -2.000000 0.666667 2.000000
v -2.000000 0.333333 2.000000
v -1.500000 0.333333 2.000000
v -1.500000 0.666667 2.000000
v -3.000000 0.666667 2.000000
v -3.000000 0.333333 2.000000
v -2.500000 0.333333 2.000000
v -2.500000 0.666667 2.000000
v -3.000000 1.666667 2.000000
v -3.000000 1.333333 2.000000
v -2.500000 1.333333 2.000000
v -2.500000 1.666667 2.000000
v -2.000000 1.666667 2.000000
v -2.000000 1.333333 2.000000
v -1.500000 1.333333 2.000000
v -1.500000 1.666667 2.000000
v -0.500000 1.666667 2.000000
v -0.500000 1.333333 2.000000
v 0.000000 1.333333 2.000000
v 0.000000 1.666667 2.000000
v 0.500000 1.333333 2.000000
v 0.500000 1.666667 2.000000
v 1.500000 1.666667 2.000000
v 1.500000 1.333333 2.000000
v 2.000000 1.333333 2.000000
v 2.000000 1.666667 2.000000
v 2.500000 1.666667 2.000000
v 2.500000 1.333333 2.000000
v 3.000000 1.333333 2.000000
v 3.000000 1.666667 2.000000
v 1.500000 0.666667 2.000000
v 1.500000 0.333333 2.000000
v 2.000000 0.333333 2.000000
v 2.000000 0.666667 2.000000
v 2.500000 0.666667 2.000000
v 2.500000 0.333333 2.000000
v 3.000000 0.333333 2.000000
v 3.000000 0.666667 2.000000
v -3.500000 1.666667 -1.500000
v -3.500000 1.333333 -1.500000
v -3.500000 1.333333 -1.000000
v -3.500000 1.666667 -1.000000
v -3.500000 1.666667 1.000000
v -3.500000 1.333333 1.000000
v -3.500000 1.333333 1.500000
v -3.500000 1.666667 1.500000
v -3.500000 1.666667 -0.500000
v -3.500000 1.333333 -0.500000
v -3.500000 1.333333 0.000000
v -3.500000 1.666667 0.000000
v -3.500000 1.333333 0.500000
v -3.500000 1.666667 0.500000
v -3.500000 0.666667 -1.500000
v -3.500000 0.333333 -1.500000
v -3.500000 0.333333 -1.000000
v -3.500000 0.666667 -1.000000
v -3.500000 0.666667 -0.500000
v -3.500000 0.333333 -0.500000
v -3.500000 0.333333 0.000000
v -3.500000 0.666667 0.000000
v -3.500000 0.333333 0.500000
v -3.500000 0.666667 0.500000
v -3.500000 0.666667 1.000000
v -3.500000 0.333333 1.000000
v -3.500000 0.333333 1.500000
v -3.500000 0.666667 1.500000
v 3.500000 1.666667 1.500000
v 3.500000 1.333333 1.500000
v 3.500000 1.333333 1.000000
v 3.500000 1.666667 1.000000
v 3.500000 1.666667 -1.000000
v 3.500000 1.333333 -1.000000
v 3.500000 1.333333 -1.500000
v 3.500000 1.666667 -1.500000
v 3.500000 1.666667 0.000000
v 3.500000 1.333333 0.000000
v 3.500000 1.333333 -0.500000
v 3.500000 1.666667 -0.500000
v 3.500000 1.666667 0.500000
v 3.500000 1.333333 0.500000
v 3.500000 0.666667 0.500000
v 3.500000 0.333333 0.500000
v 3.500000 0.333333 0.000000
v 3.500000 0.666667 0.000000
v 3.500000 0.333333 -0.500000
v 3.500000 0.666667 -0.500000
v 3.500000 0.666667 1.500000
v 3.500000 0.333333 1.500000
v 3.500000 0.333333 1.000000
v 3.500000 0.666667 1.000000
v 3.500000 0.666667 -1.000000
v 3.500000 0.333333 -1.000000
v 3.500000 0.333333 -1.500000
v 3.500000 0.666667 -1.500000
v -0.500000 1.333333 -2.000000
v -0.500000 1.000000 -2.000000
v -1.000000 1.000000 -2.000000
v -1.000000 1.333333 -2.000000
v -0.500000 1.666667 -2.000000
v -1.000000 1.666667 -2.000000
v -1.500000 1.333333 -2.000000
v -1.500000 1.666667 -2.000000
v -1.500000 1.000000 -2.000000
v -2.000000 1.000000 -2.000000
v -2.000000 1.333333 -2.000000
v -2.000000 1.666667 -2.000000
v 1.000000 1.666667 -2.000000
v 1.000000 1.333333 -2.000000
v 0.500000 1.333333 -2.000000
v 0.500000 1.666667 -2.000000
v 1.000000 1.000000 -2.000000
v 0.500000 1.000000 -2.000000
v 1.500000 1.333333 -2.000000
v 1.500000 1.000000 -2.000000
v 1.500000 1.666667 -2.000000
v 2.000000 1.666667 -2.000000
v 2.000000 1.333333 -2.000000
v 2.000000 1.000000 -2.000000
v 3.000000 1.666667 -2.000000
v 3.000000 1.333333 -2.000000
v 2.500000 1.333333 -2.000000
v 2.500000 1.666667 -2.000000
v -2.500000 1.666667 -2.000000
v -2.500000 1.333333 -2.000000
v -3.000000 1.333333 -2.000000
v -3.000000 1.666667 -2.000000
vt 2.857143 1.666667
vt 2.857143 0.833333
vt 2.142857 0.833333
vt 2.142857 1.666667
vt 1.428571 1.666667
vt 1.428571 0.833333
vt 0.714286 0.833333
vt 0.714286 1.666667
vt 1.428571 4.166667
vt 1.428571 3.333333
vt 0.714286 3.333333
vt 0.714286 4.166667
vt 2.857143 4.166667
vt 2.857143 3.333333
vt 2.142857 3.333333
vt 2.142857 4.166667
vt 5.000000 4.166667
vt 5.000000 3.333333
vt 4.285714 3.333333
vt 4.285714 4.166667
vt 5.714286 4.166667
vt 5.714286 3.333333
vt 7.857143 4.166667
vt 7.857143 3.333333
vt 7.142857 3.333333
vt 7.142857 4.166667
vt 9.285714 4.166667
vt 9.285714 3.333333
vt 8.571428 3.333333
vt 8.571428 4.166667
vt 7.857143 1.666667
vt 7.857143 0.833333
vt 7.142857 0.833333
vt 7.142857 1.666667
vt 9.285714 1.666667
vt 9.285714 0.833333
vt 8.571428 0.833333
vt 8.571428 1.666667
vt 2.500000 4.166667
vt 2.500000 3.333333
vt 1.250000 3.333333
vt 1.250000 4.166667
vt 8.750000 4.166667
vt 8.750000 3.333333
vt 7.500000 3.333333
vt 7.500000 4.166667
vt 3.750000 3.333333
vt 3.750000 4.166667
vt 6.250000 4.166667
vt 6.250000 3.333333
vt 2.500000 1.666667
vt 2.500000 0.833333
vt 1.250000 0.833333
vt 1.250000 1.666667
vt 5.000000 1.666667
vt 5.000000 0.833333
vt 3.750000 0.833333
vt 3.750000 1.666667
vt 6.250000 1.666667
vt 6.250000 0.833333
vt 8.750000 1.666667
vt 8.750000 0.833333
vt 7.500000 0.833333
vt 7.500000 1.666667
vt 6.428571 3.333333
vt 6.428571 2.500000
vt 5.714286 2.500000
vt 6.428571 4.166667
vt 7.142857 2.500000
vt 7.857143 2.500000
vt 3.571429 3.333333
vt 3.571429 4.166667
vt 4.285714 2.500000
vt 3.571429 2.500000
vt 2.857143 2.500000
vt 2.142857 2.500000
vn 0.000000 0.000000 -1.000000
vn 1.000000 0.000000 0.000000
vn -1.000000 0.000000 0.000000
vn 0.000000 0.000000 1.000000
usemtl 4e8dd8
s 1
f 4/1/1 3/2/1 2/3/1 1/4/1
f 8/5/1 7/6/1 6/7/1 5/8/1
f 12/9/1 11/10/1 10/11/1 9/12/1
f 16/13/1 15/14/1 14/15/1 13/16/1
f 20/17/1 19/18/1 18/19/1 17/20/1
f 22/21/1 21/22/1 19/18/1 20/17/1
f 26/23/1 25/24/1 24/25/1 23/26/1
f 30/27/1 29/28/1 28/29/1 27/30/1
f 34/31/1 33/32/1 32/33/1 31/34/1
f 38/35/1 37/36/1 36/37/1 35/38/1
f 42/39/2 41/40/2 40/41/2 39/42/2
f 46/43/2 45/44/2 44/45/2 43/46/2
f 50/17/2 49/18/2 48/47/2 47/48/2
f 52/49/2 51/50/2 49/18/2 50/17/2
f 56/51/2 55/52/2 54/53/2 53/54/2
f 60/55/2 59/56/2 58/57/2 57/58/2
f 62/59/2 61/60/2 59/56/2 60/55/2
f 66/61/2 65/62/2 64/63/2 63/64/2
f 70/39/3 69/40/3 68/41/3 67/42/3
f 74/43/3 73/44/3 72/45/3 71/46/3
f 78/49/3 77/50/3 76/18/3 75/17/3
f 75/17/3 76/18/3 80/47/3 79/48/3
f 84/55/3 83/56/3 82/57/3 81/58/3
f 86/59/3 85/60/3 83/56/3 84/55/3
f 90/51/3 89/52/3 88/53/3 87/54/3
f 94/61/3 93/62/3 92/63/3 91/64/3
f 98/65/4 97/66/4 96/67/4 95/22/4
f 100/68/4 98/65/4 95/22/4 99/21/4
f 102/26/4 101/25/4 98/65/4 100/68/4
f 101/25/4 103/69/4 97/66/4 98/65/4
f 105/24/4 104/70/4 103/69/4 101/25/4
f 106/23/4 105/24/4 101/25/4 102/26/4
f 110/20/4 109/19/4 108/71/4 107/72/4
f 109/19/4 112/73/4 111/74/4 108/71/4
f 108/71/4 111/74/4 114/75/4 113/14/4
f 107/72/4 108/71/4 113/14/4 115/13/4
f 115/13/4 113/14/4 117/15/4 116/16/4
f 113/14/4 114/75/4 118/76/4 117/15/4
f 122/9/4 121/10/4 120/11/4 119/12/4
f 126/27/4 125/28/4 124/29/4 123/30/4
o windows
v -2.000000 0.666667 2.000000
v -2.000000 0.333333 2.000000
v -1.500000 0.333333 2.000000
v -1.500000 0.666667 2.000000
v -3.000000 0.666667 2.000000
v -3.000000 0.333333 2.000000
v -2.500000 0.333333 2.000000
v -2.500000 0.666667 2.000000
v -3.000000 1.666667 2.000000
v -3.000000 1.333333 2.000000
v -2.500000 1.333333 2.000000
v -2.500000 1.666667 2.000000
v -2.000000 1.666667 2.000000
v -2.000000 1.333333 2.000000
v -1.500000 1.333333 2.000000
v -1.500000 1.666667 2.000000
v -0.500000 1.666667 2.000000
v -0.500000 1.333333 2.000000
v 0.000000 1.333333 2.000000
v 0.000000 1.666667 2.000000
v 0.500000 1.333333 2.000000
v 0.500000 1.666667 2.000000
v 1.500000 1.666667 2.000000
v 1.500000 1.333333 2.000000
v 2.000000 1.333333 2.000000
v 2.000000 1.666667 2.000000
v 2.500000 1.666667 2.000000
v 2.500000 1.333333 2.000000
v 3.000000 1.333333 2.000000
v 3.000000 1.666667 2.000000
v 1.500000 0.666667 2.000000
v 1.500000 0.333333 2.000000
v 2.000000 0.333333 2.000000
v 2.000000 0.666667 2.000000
v 2.500000 0.666667 2.000000
v 2.500000 0.333333 2.000000
v 3.000000 0.333333 2.000000
v 3.000000 0.666667 2.000000
v -3.500000 1.666667 -1.500000
v -3.500000 1.333333 -1.500000
v -3.500000 1.333333 -1.000000
v -3.500000 1.666667 -1.000000
v -3.500000 1.666667 1.000000
v -3.500000 1.333333 1.000000
v -3.500000 1.333333 1.500000
v -3.500000 1.666667 1.500000
v -3.500000 1.666667 -0.500000
v -3.500000 1.333333 -0.500000
v -3.500000 1.333333 0.000000
v -3.500000 1.666667 0.000000
v -3.500000 1.333333 0.500000
v -3.500000 1.666667 0.500000
v -3.500000 0.666667 -1.500000
v -3.500000 0.333333 -1.500000
v -3.500000 0.333333 -1.000000
v -3.500000 0.666667 -1.000000
v -3.500000 0.666667 -0.500000
v -3.500000 0.333333 -0.500000
v -3.500000 0.333333 0.000000
v -3.500000 0.666667 0.000000
v -3.500000 0.333333 0.500000
v -3.500000 0.666667 0.500000
v -3.500000 0.666667 1.000000
v -3.500000 0.333333 1.000000
v -3.500000 0.333333 1.500000
v -3.500000 0.666667 1.500000
v 3.500000 1.666667 1.500000
v 3.500000 1.333333 1.500000
v 3.500000 1.333333 1.000000
v 3.500000 1.666667 1.000000
v 3.500000 1.666667 -1.000000
v 3.500000 1.333333 -1.000000
v 3.500000 1.333333 -1.500000
v 3.500000 1.666667 -1.500000
v 3.500000 1.666667 0.000000
v 3.500000 1.333333 0.000000
v 3.500000 1.333333 -0.500000
v 3.500000 1.666667 -0.500000
v 3.500000 1.666667 0.500000
v 3.500000 1.333333 0.500000
v 3.500000 0.666667 0.500000
v 3.500000 0.333333 0.500000
v 3.500000 0.333333 0.000000
v 3.500000 0.666667 0.000000
v 3.500000 0.333333 -0.500000
v 3.500000 0.666667 -0.500000
v 3.500000 0.666667 1.500000
v 3.500000 0.333333 1.500000
v 3.500000 0.333333 1.000000
v 3.500000 0.666667 1.000000
v 3.500000 0.666667 -1.000000
v 3.500000 0.333333 -1.000000
v 3.500000 0.333333 -1.500000
v 3.500000 0.666667 -1.500000
v -0.500000 1.333333 -2.000000
v -0.500000 1.000000 -2.000000
v -1.000000 1.000000 -2.000000
v -1.000000 1.333333 -2.000000
v -0.500000 1.666667 -2.000000
v -1.000000 1.666667 -2.000000
v -1.500000 1.333333 -2.000000
v -1.500000 1.666667 -2.000000
v -1.500000 1.000000 -2.000000
v -2.000000 1.000000 -2.000000
v -2.000000 1.333333 -2.000000
v -2.000000 1.666667 -2.000000
v 1.000000 1.666667 -2.000000
v 1.000000 1.333333 -2.000000
v 0.500000 1.333333 -2.000000
v 0.500000 1.666667 -2.000000
v 1.000000 1.000000 -2.000000
v 0.500000 1.000000 -2.000000
v 1.500000 1.333333 -2.000000
v 1.500000 1.000000 -2.000000
v 1.500000 1.666667 -2.000000
v 2.000000 1.666667 -2.000000
v 2.000000 1.333333 -2.000000
v 2.000000 1.000000 -2.000000
v 3.000000 1.666667 -2.000000
v 3.000000 1.333333 -2.000000
v 2.500000 1.333333 -2.000000
v 2.500000 1.666667 -2.000000
v -2.500000 1.666667 -2.000000
v -2.500000 1.333333 -2.000000
v -3.000000 1.333333 -2.000000
v -3.000000 1.666667 -2.000000
vt 2.142857 1.666667
vt 2.142857 0.833333
vt 2.857143 0.833333
vt 2.857143 1.666667
vt 0.714286 1.666667
vt 0.714286 0.833333
vt 1.428571 0.833333
vt 1.428571 1.666667
vt 0.714286 4.166667
vt 0.714286 3.333333
vt 1.428571 3.333333
vt 1.428571 4.166667
vt 2.142857 4.166667
vt 2.142857 3.333333
vt 2.857143 3.333333
vt 2.857143 4.166667
vt 4.285714 4.166667
vt 4.285714 3.333333
vt 5.000000 3.333333
vt 5.000000 4.166667
vt 5.714286 3.333333
vt 5.714286 4.166667
vt 7.142857 4.166667
vt 7.142857 3.333333
vt 7.857143 3.333333
vt 7.857143 4.166667
vt 8.571428 4.166667
vt 8.571428 3.333333
vt 9.285714 3.333333
vt 9.285714 4.166667
vt 7.142857 1.666667
vt 7.142857 0.833333
vt 7.857143 0.833333
vt 7.857143 1.666667
vt 8.571428 1.666667
vt 8.571428 0.833333
vt 9.285714 0.833333
vt 9.285714 1.666667
vt 1.250000 4.166667
vt 1.250000 3.333333
vt 2.500000 3.333333
vt 2.500000 4.166667
vt 7.500000 4.166667
vt 7.500000 3.333333
vt 8.750000 3.333333
vt 8.750000 4.166667
vt 3.750000 4.166667
vt 3.750000 3.333333
vt 6.250000 3.333333
vt 6.250000 4.166667
vt 1.250000 1.666667
vt 1.250000 0.833333
vt 2.500000 0.833333
vt 2.500000 1.666667
vt 3.750000 1.666667
vt 3.750000 0.833333
vt 5.000000 0.833333
vt 5.000000 1.666667
vt 6.250000 0.833333
vt 6.250000 1.666667
vt 7.500000 1.666667
vt 7.500000 0.833333
vt 8.750000 0.833333
vt 8.750000 1.666667
vt 5.714286 2.500000
vt 6.428571 2.500000
vt 6.428571 3.333333
vt 6.428571 4.166667
vt 7.142857 2.500000
vt 7.857143 2.500000
vt 3.571429 4.166667
vt 3.571429 3.333333
vt 3.571429 2.500000
vt 4.285714 2.500000
vt 2.857143 2.500000
vt 2.142857 2.500000
vn 0.000000 0.000000 1.000000
vn -1.000000 0.000000 0.000000
vn 1.000000 0.000000 0.000000
vn 0.000000 0.000000 -1.000000
usemtl 4e8dd8
s 1
f 127/77/5 128/78/5 129/79/5 130/80/5
f 131/81/5 132/82/5 133/83/5 134/84/5
f 135/85/5 136/86/5 137/87/5 138/88/5
f 139/89/5 140/90/5 141/91/5 142/92/5
f 143/93/5 144/94/5 145/95/5 146/96/5
f 146/96/5 145/95/5 147/97/5 148/98/5
f 149/99/5 150/100/5 151/101/5 152/102/5
f 153/103/5 154/104/5 155/105/5 156/106/5
f 157/107/5 158/108/5 159/109/5 160/110/5
f 161/111/5 162/112/5 163/113/5 164/114/5
f 165/115/6 166/116/6 167/117/6 168/118/6
f 169/119/6 170/120/6 171/121/6 172/122/6
f 173/123/6 174/124/6 175/95/6 176/96/6
f 176/96/6 175/95/6 177/125/6 178/126/6
f 179/127/6 180/128/6 181/129/6 182/130/6
f 183/131/6 184/132/6 185/133/6 186/134/6
f 186/134/6 185/133/6 187/135/6 188/136/6
f 189/137/6 190/138/6 191/139/6 192/140/6
f 193/115/7 194/116/7 195/117/7 196/118/7
f 197/119/7 198/120/7 199/121/7 200/122/7
f 201/96/7 202/95/7 203/125/7 204/126/7
f 205/123/7 206/124/7 202/95/7 201/96/7
f 207/131/7 208/132/7 209/133/7 210/134/7
f 210/134/7 209/133/7 211/135/7 212/136/7
f 213/127/7 214/128/7 215/129/7 216/130/7
f 217/137/7 218/138/7 219/139/7 220/140/7
f 221/97/8 222/141/8 223/142/8 224/143/8
f 225/98/8 221/97/8 224/143/8 226/144/8
f 226/144/8 224/143/8 227/100/8 228/99/8
f 224/143/8 223/142/8 229/145/8 227/100/8
f 227/100/8 229/145/8 230/146/8 231/101/8
f 228/99/8 227/100/8 231/101/8 232/102/8
f 233/147/8 234/148/8 235/94/8 236/93/8
f 234/148/8 237/149/8 238/150/8 235/94/8
f 239/91/8 240/151/8 237/149/8 234/148/8
f 241/92/8 239/91/8 234/148/8 233/147/8
f 242/89/8 243/90/8 239/91/8 241/92/8
f 243/90/8 244/152/8 240/151/8 239/91/8
f 245/85/8 246/86/8 247/87/8 248/88/8
f 249/103/8 250/104/8 251/105/8 252/106/8
